<?xml version="1.0" encoding="utf-8"?>
<!-- Generator: Adobe Illustrator 17.0.0, SVG Export Plug-In . SVG Version: 6.00 Build 0)  -->
<!DOCTYPE svg PUBLIC "-//W3C//DTD SVG 1.1//EN" "http://www.w3.org/Graphics/SVG/1.1/DTD/svg11.dtd">
<svg version="1.1" id="Vector_Smart_Object_xA0_Image_1_"
	 xmlns="http://www.w3.org/2000/svg" xmlns:xlink="http://www.w3.org/1999/xlink" x="0px" y="0px" width="2782px" height="691px"
	 viewBox="0 0 2782 691" enable-background="new 0 0 2782 691" xml:space="preserve">
<path fill="#FFFFFF" d="M252.63,18c1.804,1.786,4.087,0.84,6.113,0.919c30.294,1.176,59.861,6.586,88.715,15.685
	c28.436,8.967,55.141,21.706,79.759,38.616c47.017,32.294,81.225,74.905,102.182,127.969c8.842,22.388,14.321,45.658,17.386,69.58
	c2.615,20.408,2.893,40.902,1.508,61.251c-2.841,41.748-13.994,81.298-34.252,118.197c-17.921,32.643-41.342,60.6-70.352,83.76
	c-35.761,28.55-76.28,47.505-120.774,58.014c-21.833,5.157-43.925,8.347-66.383,9.162c-45.457,1.651-90.925,0.305-136.385,0.731
	c-15.664,0.147-31.345,0.48-46.992-0.045c-31.953-1.071-57.179-22.491-62.414-54.741c-0.528-3.255-0.219-6.654-0.219-9.986
	c-0.008-151.819,0.171-303.639-0.154-455.458c-0.067-31.187,24.376-59.57,55.74-62.711c0.683-0.068,1.3-0.167,1.521-0.944
	C129.297,18,190.964,18,252.63,18z M138.54,309.775c0,56.984,0.044,113.968-0.092,170.951c-0.01,4.112,0.598,5.537,5.235,5.499
	c31.489-0.26,62.981-0.199,94.472-0.119c16.036,0.041,31.926-1.374,47.489-5.178c57.62-14.084,98.201-47.885,118.464-104.256
	c11.905-33.121,13.339-67.306,7.661-101.875c-5.915-36.011-20.945-67.577-47.224-93.119
	c-32.732-31.813-72.947-46.302-117.932-47.483c-34.466-0.905-68.975-0.142-103.463-0.377c-4.208-0.029-4.68,1.418-4.673,5.005
	C138.577,195.807,138.547,252.791,138.54,309.775z M1767.63,18c-1.496,1.949-3.709,0.819-5.556,1.225
	c-32.083,7.052-52.691,37.549-46.458,69.78c5.022,25.966,29.903,46.981,56.326,46.992c39.991,0.017,79.983,0.11,119.972-0.132
	c5.019-0.03,5.833,1.423,5.828,6.07c-0.136,133.97-0.106,267.94-0.12,401.91c-0.001,8.933,2.03,17.431,5.766,25.45
	c14.464,31.046,48.72,45.022,80.962,33.417c24.328-8.756,41.399-33.822,41.364-58.919c-0.19-133.97-0.064-267.94-0.202-401.91
	c-0.005-4.814,1.212-6.023,6.025-5.997c39.49,0.209,78.982,0.039,118.473,0.162c12.394,0.039,23.464-3.574,33.575-10.558
	c35.677-24.643,33.109-78.214-4.676-99.539c-7.327-4.135-15.301-5.944-23.278-7.95C2026.297,18,1896.964,18,1767.63,18z
	 M2771.63,344c-1.924-1.453-0.981-3.713-1.403-5.544c-4.626-20.083-16.692-34.648-33.354-45.988
	c-14.377-9.785-30.542-15.693-46.523-22.107c-49.913-20.031-99.736-40.287-149.604-60.43c-63.024-25.456-126-51.035-189.12-76.25
	c-22.615-9.034-45.352-8.547-67.388,2.36c-25.084,12.416-36.338,40.162-26.385,64.977c7.491,18.676,22.298,29.765,40.34,36.84
	c25.238,9.897,50.656,19.335,76.006,28.943c42.509,16.112,85.041,32.166,127.536,48.315c35.528,13.502,71.017,27.105,106.521,40.667
	c1.307,0.499,3.38,0.435,3.273,2.296c-0.08,1.397-2.021,1.43-3.181,1.873c-20.257,7.732-40.538,15.402-60.806,23.106
	c-37.386,14.21-74.756,28.465-112.154,42.643c-42.674,16.179-85.378,32.282-128.058,48.445c-12.72,4.817-25.225,9.949-35.624,19.205
	c-21.221,18.889-23.311,50.711-4.326,71.82c19.92,22.147,44.948,25.921,72.384,18.959c14.429-3.661,27.805-10.455,41.589-16.014
	c67.051-27.038,134.124-54.022,201.183-81.037c33.78-13.609,67.584-27.16,101.31-40.903c16.224-6.611,32.96-12.101,47.958-21.485
	c17.525-10.965,31.53-24.762,37.375-45.362c0.879-3.097,0.729-6.461,2.448-9.328C2771.63,361.333,2771.63,352.667,2771.63,344z
	 M859.784,146.828c47.85,0.147,94.949,12.638,137.23,40.977c51.425,34.467,83.757,82.074,96.728,142.756
	c4.23,19.792,5.913,39.801,4.69,59.908c-3.737,61.414-27.383,113.847-72.375,156.141c-35.171,33.062-77.177,52.682-124.435,61.219
	c-17.006,3.072-34.277,4.664-51.572,4.008c-75.231-2.854-139.089-30.016-187.211-89.433
	c-23.787-29.371-38.671-63.044-45.259-100.343c-2.838-16.07-4.386-32.259-3.786-48.537c1.549-42.028,12.666-81.26,35.455-116.873
	c29.266-45.736,70.065-77.034,120.88-95.34c20.61-7.425,41.983-11.826,63.934-13.522
	C841.725,147.198,849.349,147.262,859.784,146.828z M855.105,255.959c-2.831,0-5.669-0.12-8.492,0.033
	c-2.982,0.161-5.963,0.489-8.921,0.905c-39.573,5.566-68.347,26.364-85.836,62.144c-12.482,25.536-15.482,52.768-11.222,80.729
	c4.714,30.937,18.548,57.139,42.805,77.138c25.435,20.971,55.034,28.629,87.63,25.161c34.582-3.68,62.329-19.3,81.5-48.518
	c20.387-31.07,25.128-65.355,18.079-101.404C959.748,296.392,912.816,254.565,855.105,255.959z M1504.498,315.92
	c0,77.816-0.007,155.631,0.021,233.447c0.001,4.139,0.157,8.237,0.996,12.378c7.957,39.283,49.542,61.285,86.238,46.529
	c26.587-10.691,40.798-33.046,40.801-62.425c0.015-154.632,0.019-309.263-0.061-463.895c-0.002-4.261-0.658-8.599-1.595-12.768
	c-7.746-34.448-40.478-54.703-73.313-49.33c-29.846,4.884-53.05,30.966-53.059,61.117c-0.025,78.316-0.008,156.631-0.008,234.947
	C1504.51,315.92,1504.504,315.92,1504.498,315.92z M1342.273,411.002c3.991,0.002,7.921-0.283,11.894-0.922
	c31.317-5.034,55.8-36.201,49.64-70.447c-4.964-27.597-31.228-50.066-59.831-49.776c-48.975,0.496-97.958,0.13-146.938,0.14
	c-31.325,0.006-58.926,27.198-59.401,58.493c-0.526,34.696,26.915,62.501,61.695,62.506c23.99,0.004,47.98,0.001,71.97,0.001
	C1294.959,410.997,1318.616,410.991,1342.273,411.002z"/>
</svg>
