<?xml version="1.0" encoding="utf-8"?>
<!-- Generator: Adobe Illustrator 17.0.0, SVG Export Plug-In . SVG Version: 6.00 Build 0)  -->
<!DOCTYPE svg PUBLIC "-//W3C//DTD SVG 1.1//EN" "http://www.w3.org/Graphics/SVG/1.1/DTD/svg11.dtd">
<svg version="1.1" id="Vector_Smart_Object_xA0_Image_1_"
	 xmlns="http://www.w3.org/2000/svg" xmlns:xlink="http://www.w3.org/1999/xlink" x="0px" y="0px" width="548px" height="691px"
	 viewBox="0 0 548 691" enable-background="new 0 0 548 691" xml:space="preserve">
<path fill="#FFFFFF" d="M537.63,344c-1.924-1.453-0.981-3.713-1.403-5.544c-4.626-20.083-16.692-34.648-33.354-45.988
	c-14.377-9.785-30.542-15.693-46.523-22.107c-49.913-20.031-99.736-40.287-149.604-60.43c-63.024-25.456-126-51.035-189.12-76.25
	c-22.615-9.034-45.352-8.547-67.388,2.36c-25.084,12.416-36.338,40.162-26.385,64.977c7.491,18.676,22.298,29.765,40.34,36.84
	c25.238,9.897,50.656,19.335,76.006,28.943c42.509,16.112,85.041,32.166,127.536,48.315c35.528,13.502,71.017,27.105,106.521,40.667
	c1.307,0.499,3.38,0.435,3.273,2.296c-0.08,1.397-2.021,1.43-3.181,1.873c-20.257,7.732-40.538,15.402-60.806,23.106
	c-37.386,14.21-74.756,28.465-112.154,42.643c-42.674,16.179-85.378,32.282-128.058,48.445c-12.72,4.817-25.225,9.949-35.624,19.205
	c-21.221,18.889-23.311,50.711-4.326,71.82c19.92,22.147,44.948,25.921,72.384,18.959c14.429-3.661,27.805-10.455,41.589-16.014
	c67.051-27.038,134.124-54.022,201.183-81.037c33.78-13.609,67.584-27.16,101.31-40.903c16.224-6.611,32.96-12.101,47.958-21.485
	c17.525-10.965,31.53-24.762,37.375-45.362c0.879-3.097,0.729-6.461,2.448-9.328C537.63,361.333,537.63,352.667,537.63,344z"/>
</svg>
